<svg id="Capa_1" data-name="Capa 1" xmlns="http://www.w3.org/2000/svg" viewBox="0 0 83.9 83.9"><defs><style>.cls-1{fill:#fff;}.cls-2{fill:#dfdfdf;}.cls-3{fill:#011761;}.cls-4{fill:#e1231f;}</style></defs><circle class="cls-1" cx="41.95" cy="41.95" r="39"/><path class="cls-2" d="M42,82.43A40.48,40.48,0,1,1,70.59,70.59,40.41,40.41,0,0,1,42,82.43Zm0-78a37.48,37.48,0,1,0,26.51,11A37.39,37.39,0,0,0,42,4.47Z"/><path class="cls-3" d="M64.47,50.61H47.15a1.73,1.73,0,0,0-1.23.51L44.7,52.34H39.2L38,51.12a1.73,1.73,0,0,0-1.23-.51H24.62V28a1.62,1.62,0,0,1,1.62-1.61H57.66A1.61,1.61,0,0,1,59.27,28v11.6h3.47V28a5.09,5.09,0,0,0-5.08-5.08H26.24A5.09,5.09,0,0,0,21.16,28V50.61H19.43a1.74,1.74,0,0,0-1.74,1.73V56a5,5,0,0,0,5,5H61.23a5,5,0,0,0,5-5V52.34A1.73,1.73,0,0,0,64.47,50.61ZM62.74,56a1.52,1.52,0,0,1-1.51,1.51H22.67A1.52,1.52,0,0,1,21.16,56v-2H36l1.23,1.23a1.73,1.73,0,0,0,1.22.51h6.93a1.78,1.78,0,0,0,1.23-.51l1.22-1.23H62.74Z"/><path class="cls-4" d="M29.38,35h6.93a1.74,1.74,0,1,0,0-3.47H29.38a1.74,1.74,0,0,0,0,3.47Z"/><path class="cls-3" d="M59.27,36.8v2.6a1.74,1.74,0,0,0,3.47,0V36.8c0-1-.78-3.18-1.74-3.18S59.27,35.84,59.27,36.8Z"/><path class="cls-4" d="M29.38,40.22h6.93a1.74,1.74,0,1,0,0-3.47H29.38a1.74,1.74,0,0,0,0,3.47Z"/><path class="cls-4" d="M32.85,42H29.38a1.73,1.73,0,0,0,0,3.46h3.47a1.73,1.73,0,0,0,0-3.46Z"/><circle class="cls-4" cx="61" cy="45.99" r="1.98"/></svg>