<svg id="Capa_1" data-name="Capa 1" xmlns="http://www.w3.org/2000/svg" viewBox="0 0 83.9 83.9"><defs><style>.cls-1{fill:#fff;}.cls-2{fill:#dfdfdf;}.cls-3{fill:none;}.cls-4{fill:#011761;}.cls-5{fill:#e1231f;}</style></defs><circle class="cls-1" cx="41.95" cy="41.95" r="39"/><path class="cls-2" d="M42,82.45A40.5,40.5,0,1,1,82.45,42,40.55,40.55,0,0,1,42,82.45Zm0-78A37.5,37.5,0,1,0,79.45,42,37.54,37.54,0,0,0,42,4.45Z"/><path class="cls-3" d="M59.42,22.89H54.94v3.47h4.48l-.51-.51a1.74,1.74,0,0,1,0-2.45Z"/><polygon class="cls-3" points="35.88 55.37 35.88 62.74 46.28 62.74 46.28 47.15 35.88 47.15 35.88 55.37"/><rect class="cls-3" x="22.03" y="55.81" width="10.39" height="6.93"/><path class="cls-4" d="M53.55,62.74H49.74V38.48h10.4V54.61H63.6V38.05a3,3,0,0,0-3-3H49.23a3,3,0,0,0-2.95,3v5.63H35.45a3,3,0,0,0-3,3v5.63H21.59a3,3,0,0,0-3,3v7.8a3,3,0,0,0,3,3h32Zm-21.13,0H22V55.81H32.42Zm13.86,0H35.88V47.15h10.4Z"/><path class="cls-5" d="M62.59,24.62l2.24-2.24a1.73,1.73,0,0,0-1.23-2.95H54.94a1.73,1.73,0,1,0-3.46,0V35h3.46v-5.2H63.6a1.72,1.72,0,0,0,1.6-1.07,1.74,1.74,0,0,0-.37-1.89Zm-3.68,1.23.51.51H54.94V22.89h4.48l-.51.51A1.74,1.74,0,0,0,58.91,25.85Z"/><path class="cls-4" d="M60.14,47.88v6.93a1.73,1.73,0,1,0,3.46,0V47.88a1.73,1.73,0,0,0-3.46,0Z"/><path class="cls-4" d="M49.54,66.2h6.93a1.73,1.73,0,1,0,0-3.46H49.54a1.73,1.73,0,1,0,0,3.46Z"/><circle class="cls-5" cx="61.87" cy="60.32" r="1.98"/></svg>