<svg id="Capa_1" data-name="Capa 1" xmlns="http://www.w3.org/2000/svg" viewBox="0 0 83.9 83.9"><defs><style>.cls-1{fill:#fff;}.cls-2{fill:#dfdfdf;}.cls-3{fill:#e1231f;}.cls-4{fill:none;}.cls-5{fill:#011761;}</style></defs><circle class="cls-1" cx="41.95" cy="41.95" r="39"/><path class="cls-2" d="M42,82.45A40.5,40.5,0,1,1,82.45,42,40.55,40.55,0,0,1,42,82.45Zm0-78A37.5,37.5,0,1,0,79.45,42,37.54,37.54,0,0,0,42,4.45Z"/><circle class="cls-3" cx="30.68" cy="50.28" r="2.11"/><polygon class="cls-4" points="46.08 39.85 42.86 44.69 46.08 39.86 46.08 39.85"/><path class="cls-3" d="M42,35.48a16.66,16.66,0,0,0-12.48,5.64,1.85,1.85,0,0,0,2.78,2.45,12.87,12.87,0,0,1,13.81-3.71l2.09-3.15A16.52,16.52,0,0,0,42,35.48Z"/><path class="cls-3" d="M51.68,43.57a1.87,1.87,0,0,0,1.39.62,1.84,1.84,0,0,0,1.38-3.07,16.27,16.27,0,0,0-3-2.64l-2.05,3.07A12.74,12.74,0,0,1,51.68,43.57Z"/><path class="cls-5" d="M42,24.39A25.92,25.92,0,0,0,16.06,50.28a1.84,1.84,0,0,0,1.85,1.84h5.5a1.85,1.85,0,1,0,0-3.69H19.84a22.19,22.19,0,0,1,44.22,0H47.34a5.61,5.61,0,0,0-1.19-2l3.23-4.84h0l2-3.07h0l1.31-2v0a1.84,1.84,0,0,0-3.08-2l-1.5,2.25h0l-2.1,3.15h0l-3.23,4.83a5.28,5.28,0,0,0-.88-.18A5.77,5.77,0,1,0,42,56a5.7,5.7,0,0,0,5.39-3.92H66a1.84,1.84,0,0,0,1.85-1.84A25.91,25.91,0,0,0,42,24.39Z"/><circle class="cls-1" cx="41.97" cy="50.28" r="2.5"/></svg>