<?xml version="1.0" encoding="UTF-8"?>
<svg xmlns="http://www.w3.org/2000/svg" xmlns:xlink="http://www.w3.org/1999/xlink" width="23pt" height="20pt" viewBox="0 0 23 20" version="1.1">
<g id="surface1">
<path style=" stroke:none;fill-rule:nonzero;fill:rgb(35.294118%,37.254902%,38.823529%);fill-opacity:1;" d="M 16.484375 6.640625 C 16.484375 4.257812 14.253906 2.320312 11.515625 2.320312 C 8.773438 2.320312 6.542969 4.257812 6.542969 6.640625 C 6.542969 9.027344 8.773438 10.964844 11.515625 10.964844 C 14.253906 10.964844 16.484375 9.027344 16.484375 6.640625 Z M 7.890625 6.640625 C 7.890625 4.90625 9.515625 3.492188 11.515625 3.492188 C 13.511719 3.492188 15.136719 4.90625 15.136719 6.640625 C 15.136719 8.378906 13.511719 9.792969 11.515625 9.792969 C 9.515625 9.792969 7.890625 8.378906 7.890625 6.640625 Z M 7.890625 6.640625 "/>
<path style=" stroke:none;fill-rule:nonzero;fill:rgb(35.294118%,37.254902%,38.823529%);fill-opacity:1;" d="M 19.578125 14.589844 C 18.5625 14.210938 17.257812 13.914062 15.765625 13.722656 C 15.804688 13.675781 15.847656 13.632812 15.886719 13.585938 C 16.839844 12.539062 17.601562 11.488281 18.152344 10.464844 C 18.851562 9.160156 19.203125 7.886719 19.203125 6.6875 C 19.203125 3 15.753906 0 11.515625 0 C 7.273438 0 3.824219 3 3.824219 6.6875 C 3.824219 7.886719 4.179688 9.160156 4.878906 10.464844 C 5.425781 11.488281 6.1875 12.539062 7.140625 13.585938 C 7.183594 13.632812 7.222656 13.675781 7.265625 13.722656 C 5.769531 13.914062 4.46875 14.210938 3.449219 14.589844 C 2.390625 14.984375 1.125 15.671875 1.125 16.730469 C 1.125 18.875 6.351562 20 11.515625 20 C 16.679688 20 21.90625 18.875 21.90625 16.730469 C 21.90625 15.671875 20.640625 14.984375 19.578125 14.589844 Z M 5.171875 6.6875 C 5.171875 3.644531 8.019531 1.171875 11.515625 1.171875 C 15.011719 1.171875 17.855469 3.644531 17.855469 6.6875 C 17.855469 11.234375 11.820312 15.601562 11.761719 15.644531 C 11.640625 15.730469 11.390625 15.730469 11.269531 15.644531 C 11.207031 15.601562 5.171875 11.242188 5.171875 6.6875 Z M 18.183594 18.070312 C 16.410156 18.558594 14.042969 18.828125 11.515625 18.828125 C 8.988281 18.828125 6.617188 18.558594 4.847656 18.070312 C 2.972656 17.550781 2.472656 16.984375 2.472656 16.730469 C 2.472656 16.359375 3.285156 15.925781 3.980469 15.667969 C 5.0625 15.265625 6.589844 14.953125 8.316406 14.78125 C 9.449219 15.859375 10.363281 16.511719 10.414062 16.550781 C 10.722656 16.769531 11.117188 16.878906 11.515625 16.878906 C 11.910156 16.878906 12.308594 16.769531 12.617188 16.550781 C 12.667969 16.511719 13.578125 15.859375 14.714844 14.78125 C 16.4375 14.953125 17.96875 15.265625 19.050781 15.667969 C 20.164062 16.078125 20.558594 16.496094 20.558594 16.730469 C 20.558594 16.984375 20.058594 17.550781 18.183594 18.070312 Z M 18.183594 18.070312 "/>
</g>
</svg>
