<?xml version="1.0" encoding="UTF-8"?>
<!DOCTYPE svg PUBLIC "-//W3C//DTD SVG 1.1//EN" "http://www.w3.org/Graphics/SVG/1.1/DTD/svg11.dtd">
<!-- Creator: CorelDRAW X7 -->
<svg xmlns="http://www.w3.org/2000/svg" xml:space="preserve" width="145.57mm" height="71.7503mm" version="1.1" style="shape-rendering:geometricPrecision; text-rendering:geometricPrecision; image-rendering:optimizeQuality; fill-rule:evenodd; clip-rule:evenodd"
viewBox="0 0 14557 7175"
 xmlns:xlink="http://www.w3.org/1999/xlink">
 <defs>
  <style type="text/css">
   <![CDATA[
    .fil2 {fill:none}
    .fil0 {fill:#658B25}
    .fil1 {fill:#C51B1B}
   ]]>
  </style>
 </defs>
 <g id="Capa_x0020_1">
  <metadata id="CorelCorpID_0Corel-Layer"/>
  <g id="_2322289862608">
   <g>
    <g>
     <path class="fil0" d="M3358 4714c375,342 826,432 1383,173l-120 95c-831,518 -1708,-137 -1915,-264 276,-132 607,-178 910,-170 304,8 631,73 904,210 19,9 39,15 59,16 -343,198 -743,201 -1221,-60z"/>
     <path class="fil1" d="M2655 4653c572,-393 1384,-473 2024,-156 179,88 -13,291 -141,226 -527,-265 -1329,-296 -1865,-32 -45,22 -69,-3 -18,-38zm2301 -1573c-167,0 -303,-135 -303,-303 0,-167 136,-303 303,-303 168,0 303,136 303,303 0,168 -135,303 -303,303zm-2436 0c167,0 303,-136 303,-304 0,-167 -136,-303 -303,-303 -168,0 -303,136 -303,303 0,168 135,304 303,304l0 0zm1218 -247c230,0 417,-186 417,-416 0,-230 -187,-417 -417,-417 -230,0 -417,187 -417,417 0,230 187,416 417,416l0 0zm-1692 980c962,-701 2256,-847 3339,-335 252,119 -44,511 -255,396 -737,-402 -2093,-446 -3033,14 -93,45 -150,-3 -51,-75zm323 404c762,-491 1807,-575 2641,-159 179,90 -42,381 -216,295 -681,-339 -1694,-390 -2403,-72 -93,42 -122,0 -22,-64z"/>
    </g>
    <g>
     <path class="fil0" d="M12042 2986c-91,0 -168,32 -230,95 -62,64 -93,145 -93,243 0,110 39,196 117,260 61,50 131,74 210,74 88,0 164,-32 227,-96 63,-65 94,-145 94,-239 0,-94 -32,-174 -95,-239 -63,-66 -140,-98 -230,-98zm3 -185c140,0 260,51 361,152 101,101 151,225 151,371 0,144 -50,266 -149,366 -99,100 -220,150 -362,150 -148,0 -272,-51 -370,-154 -98,-102 -147,-224 -147,-366 0,-94 23,-181 68,-261 46,-79 109,-142 189,-188 80,-47 167,-70 259,-70zm-771 25l188 0 0 990 -188 0 0 -990zm-667 182l0 624 87 0c86,0 149,-10 188,-29 38,-20 70,-53 95,-100 24,-47 37,-104 37,-173 0,-105 -30,-186 -88,-244 -53,-52 -138,-78 -255,-78l-64 0zm-187 -182l223 0c143,0 250,18 320,53 70,36 128,94 173,174 45,80 68,174 68,282 0,76 -13,146 -38,210 -25,64 -60,117 -105,159 -45,42 -93,71 -145,87 -52,17 -142,25 -270,25l-226 0 0 -990zm-622 0l540 0 0 185 -352 0 0 177 352 0 0 182 -352 0 0 261 352 0 0 185 -540 0 0 -990zm-1051 0l182 0 231 690 231 -690 182 0 166 990 -181 0 -106 -626 -210 626 -166 0 -209 -626 -107 626 -184 0 171 -990zm-694 160c-91,0 -168,32 -230,95 -62,64 -93,145 -93,243 0,110 39,196 117,260 61,50 131,74 210,74 89,0 164,-32 227,-96 63,-65 94,-145 94,-239 0,-94 -32,-174 -95,-239 -63,-66 -139,-98 -230,-98zm3 -185c140,0 260,51 361,152 101,101 151,225 151,371 0,144 -50,266 -149,366 -99,100 -220,150 -362,150 -148,0 -272,-51 -370,-154 -98,-102 -147,-224 -147,-366 0,-94 23,-181 68,-261 46,-79 109,-142 189,-188 80,-47 167,-70 259,-70zm-971 412l60 0c61,0 102,-8 125,-23 23,-16 34,-42 34,-79 0,-22 -5,-41 -17,-57 -11,-16 -26,-27 -45,-34 -19,-7 -54,-11 -105,-11l-52 0 0 204zm-187 -387l200 0c109,0 187,10 234,29 46,20 84,52 112,97 28,46 42,99 42,161 0,65 -15,120 -46,163 -32,44 -78,77 -141,100l233 440 -205 0 -223 -419 -19 0 0 419 -187 0 0 -990zm-503 387l60 0c48,0 81,-3 99,-10 19,-7 33,-18 44,-33 11,-16 16,-35 16,-57 0,-39 -15,-67 -45,-84 -21,-13 -62,-20 -121,-20l-53 0 0 204zm-188 -387l200 0c109,0 187,10 234,30 48,20 86,52 114,97 27,44 41,98 41,160 0,69 -18,127 -55,173 -36,45 -85,77 -147,95 -37,10 -103,16 -199,16l0 419 -188 0 0 -990z"/>
     <path class="fil0" d="M8373 4347l62 0 148 226 0 -226 65 0 0 344 -62 0 -148 -226 0 226 -65 0 0 -344zm-190 -119l75 0 -85 92 -46 0 56 -92zm-14 174c-31,0 -58,11 -79,33 -22,23 -33,51 -33,85 0,38 14,68 41,90 21,17 45,26 73,26 31,0 57,-11 79,-34 21,-22 32,-50 32,-83 0,-32 -11,-60 -33,-83 -21,-22 -48,-34 -80,-34zm1 -64c49,0 91,18 126,53 35,35 52,78 52,129 0,50 -17,92 -51,127 -35,35 -77,52 -126,52 -52,0 -95,-18 -129,-53 -34,-36 -51,-78 -51,-128 0,-32 8,-63 24,-90 16,-28 38,-50 65,-66 28,-16 58,-24 90,-24zm-262 9l65 0 0 344 -65 0 0 -344zm-15 60l-46 44c-31,-33 -66,-50 -105,-50 -33,0 -61,12 -83,34 -23,22 -34,50 -34,83 0,23 5,43 15,61 10,18 24,32 42,42 19,10 39,15 61,15 19,0 37,-4 52,-11 16,-7 34,-20 52,-38l45 46c-25,25 -50,42 -72,52 -23,9 -49,14 -78,14 -53,0 -97,-17 -131,-51 -34,-33 -51,-77 -51,-130 0,-34 8,-65 23,-91 16,-27 38,-48 67,-65 29,-16 60,-24 93,-24 29,0 56,6 82,18 27,12 49,29 68,51zm-494 31l-46 118 93 0 -47 -118zm-33 -91l66 0 133 344 -69 0 -26 -71 -141 0 -28 71 -68 0 133 -344zm-301 0l190 0 0 64 -63 0 0 280 -67 0 0 -280 -60 0 0 -64zm-238 0l66 0 0 222c0,19 2,33 5,41 3,8 9,14 17,19 7,5 17,7 28,7 11,0 21,-3 29,-8 9,-5 15,-12 18,-20 3,-8 5,-24 5,-47l0 -214 65 0 0 205c0,34 -2,58 -6,72 -4,13 -11,26 -22,39 -11,12 -24,21 -38,27 -14,6 -31,9 -50,9 -25,0 -47,-6 -65,-17 -19,-11 -32,-26 -40,-43 -8,-17 -12,-46 -12,-87l0 -205zm-163 134l21 0c17,0 28,-1 35,-3 6,-3 11,-6 15,-12 4,-5 6,-12 6,-20 0,-13 -6,-23 -16,-29 -7,-4 -22,-7 -42,-7l-19 0 0 71zm-65 -134l70 0c37,0 65,3 81,10 17,7 30,18 39,34 10,15 15,34 15,56 0,24 -6,44 -19,59 -13,16 -30,27 -51,34 -13,3 -36,5 -70,5l0 146 -65 0 0 -344zm-100 0l65 0 0 344 -65 0 0 -344zm-227 63l0 217 31 0c30,0 51,-4 65,-10 13,-7 24,-19 33,-35 8,-16 13,-36 13,-60 0,-36 -10,-65 -31,-85 -18,-18 -48,-27 -88,-27l-23 0zm-65 -63l78 0c50,0 87,6 111,18 25,13 45,33 60,61 16,28 24,60 24,97 0,27 -5,51 -13,73 -9,23 -21,41 -37,56 -15,14 -32,25 -50,30 -18,6 -49,9 -94,9l-79 0 0 -344zm4825 -5l211 0 -124 285 116 0 0 64 -213 0 124 -283 -114 0 0 -66zm-187 56c-32,0 -59,12 -81,34 -22,22 -33,51 -33,86 0,38 14,69 42,91 21,18 46,26 73,26 32,0 58,-11 80,-34 22,-23 33,-51 33,-84 0,-33 -11,-61 -33,-84 -22,-23 -49,-35 -81,-35zm1 -65c49,0 92,18 127,54 36,36 53,79 53,130 0,51 -17,94 -52,130 -35,35 -77,52 -127,52 -53,0 -96,-18 -131,-54 -34,-36 -52,-79 -52,-129 0,-33 8,-64 25,-92 16,-28 38,-50 66,-66 28,-16 59,-25 91,-25zm-272 9l66 0 0 231c0,37 -2,63 -8,78 -6,15 -16,26 -29,35 -13,9 -29,13 -48,13 -38,0 -71,-16 -98,-50l48 -45c10,12 19,20 27,24 7,4 14,6 21,6 7,0 12,-3 16,-9 3,-6 5,-19 5,-39l0 -244zm-267 93l-47 120 94 0 -47 -120zm-33 -93l67 0 134 349 -69 0 -27 -72 -143 0 -28 72 -69 0 135 -349zm-341 64l0 220 31 0c30,0 52,-3 65,-10 14,-7 25,-19 34,-35 9,-17 13,-37 13,-61 0,-37 -10,-66 -31,-86 -19,-19 -49,-28 -90,-28l-22 0zm-66 -64l78 0c51,0 89,6 113,19 25,13 45,33 61,61 16,28 24,61 24,99 0,27 -5,52 -13,74 -9,23 -22,41 -37,56 -16,15 -33,25 -51,31 -19,6 -50,9 -95,9l-80 0 0 -349zm-181 93l-47 120 94 0 -47 -120zm-33 -93l66 0 134 349 -69 0 -27 -72 -143 0 -27 72 -69 0 135 -349zm-284 196l0 90 17 0c28,0 46,-4 56,-11 10,-7 15,-17 15,-30 0,-15 -6,-27 -17,-36 -12,-8 -31,-13 -57,-13l-14 0zm0 -133l0 74 15 0c16,0 28,-3 36,-10 8,-7 12,-16 12,-28 0,-11 -3,-20 -11,-26 -8,-7 -19,-10 -35,-10l-17 0zm-66 286l0 -349 55 0c32,0 55,2 70,6 21,6 37,16 50,31 12,15 18,33 18,53 0,13 -2,26 -8,36 -6,11 -15,21 -27,31 21,10 36,22 46,37 10,15 15,33 15,53 0,20 -5,37 -16,54 -10,16 -23,28 -39,36 -16,8 -38,12 -66,12l-98 0zm-292 -256l139 0 0 47 -91 0 0 46 91 0 0 47 -91 0 0 68 91 0 0 48 -139 0 0 -256zm-173 47l0 161 22 0c23,0 39,-2 49,-7 10,-6 18,-14 25,-26 6,-12 9,-27 9,-45 0,-27 -8,-48 -23,-63 -13,-14 -35,-20 -66,-20l-16 0zm-49 -47l58 0c37,0 65,4 83,13 18,10 33,25 45,45 11,21 17,45 17,73 0,20 -3,38 -10,55 -6,16 -15,30 -27,41 -11,11 -24,18 -37,22 -14,5 -37,7 -70,7l-59 0 0 -256z"/>
    </g>
   </g>
   <rect class="fil2" width="14557" height="7175"/>
  </g>
 </g>
</svg>
