<?xml version="1.0" encoding="UTF-8" standalone="no"?> <svg  viewBox="0 0 512 512"  xmlns="http://www.w3.org/2000/svg"><path d="m117.480469 267.671875c-2.632813 0-5.210938 1.058594-7.070313 2.929687-1.859375 1.859376-2.929687 4.4375-2.929687 7.070313 0 2.628906 1.070312 5.207031 2.929687 7.066406 1.871094 1.859375 4.4375 2.933594 7.070313 2.933594 2.628906 0 5.210937-1.070313 7.078125-2.933594 1.859375-1.867187 2.933594-4.4375 2.933594-7.066406 0-2.632813-1.070313-5.210937-2.933594-7.070313-1.867188-1.871093-4.449219-2.929687-7.078125-2.929687zm0 0"/><path d="m446.707031 171.140625c-2.796875-3.796875-7.859375-5.121094-12.15625-3.1875s-6.660156 6.605469-5.671875 11.210937c5.613282 26.230469 2.761719 52.441407-8.476562 77.941407-.148438-9.644531-.960938-20.46875-2.921875-32.003907-6.503907-38.265624-27.359375-91.761718-89.800781-129.324218-3.707032-2.230469-8.429688-1.824219-11.699219 1.003906-3.269531 2.832031-4.351563 7.445312-2.675781 11.4375 20.054687 47.730469-7.414063 119.75-27.445313 161.621094-2.160156-14.054688-6.621094-30.585938-15.328125-47.570313h9.4375c3.289062 0 6.371094-1.617187 8.234375-4.324219 1.867187-2.710937 2.28125-6.164062 1.113281-9.234374l-77.074218-202.269532c-1.476563-3.878906-5.195313-6.441406-9.34375-6.441406-4.148438 0-7.867188 2.5625-9.347657 6.4375l-64.691406 169.78125-2.273437-4.988281c-1.625-3.5625-5.183594-5.851563-9.101563-5.851563s-7.476563 2.285156-9.101563 5.851563l-77.074218 169.105469c-1.410156 3.09375-1.152344 6.695312.6875 9.554687 1.839844 2.863281 5.007812 4.589844 8.410156 4.589844h5.566406l-30.550781 67.035156c-1.410156 3.09375-1.152344 6.695313.6875 9.554687 1.839844 2.863282 5.007813 4.589844 8.410156 4.589844h4.726563l-28.34375 62.191406c-1.414063 3.097657-1.152344 6.695313.6875 9.558594 1.839844 2.859375 5.007812 4.589844 8.410156 4.589844h338.332031c40.746094 0 79.792969-15.066406 109.945313-42.425781 4.089844-3.710938 4.394531-10.035157.683594-14.125-3.710938-4.089844-10.035157-4.394531-14.125-.6875-9.988282 9.0625-21.085938 16.585937-32.957032 22.441406 7.5625-11.757813 11.972656-25.730469 11.972656-40.722656 0-10.226563-2.015624-20.160157-5.992187-29.515625-.027344-.066406-.058594-.136719-.085937-.199219-1.871094-4.371094-4.183594-8.597656-6.875-12.574219-2.34375-4.027344-4.800782-8.074218-7.179688-11.992187-14.078125-23.191407-27.375-45.097657-22.03125-68.109375.835938-3.617188-.394531-7.398438-3.203125-9.828125-2.808594-2.425781-6.726563-3.097657-10.183594-1.746094-15.257812 5.96875-28.890625 17.949219-38.390625 33.730469-2.066406 3.4375-3.847656 6.894531-5.316406 10.308594-12.691406-12.253907-26.675781-13.945313-27.515625-14.039063-3.535156-.375-7.027344 1.125-9.136719 3.988281-2.113281 2.867188-2.550781 6.617188-1.136718 9.882813.414062.980469 9.90625 24.171875-2.414063 49.929687-1.566406 2.492188-2.984375 5.058594-4.21875 7.636719-.121094.234375-.234375.472656-.335937.714844-4.660157 10.015625-7.023438 20.714843-7.023438 31.8125 0 14.960937 4.390625 28.90625 11.925781 40.652343-47.402343-23.5-80.074219-72.402343-80.074219-128.796874 0-25.695313 6.609376-40.15625 14.261719-56.902344 8.695313-19.03125 18.367188-40.195313 21.246094-79.980469 12.691406 16.714844 21.101563 35.824219 25.078125 57.046875 4.125 22.023438 1.675781 38.21875 1.65625 38.351562-.769531 4.722657 1.921875 9.328126 6.410156 10.984376 4.488282 1.652343 9.523438-.105469 12.007813-4.195313 2.925781-4.820313 64.183593-107.003906 53.679687-185.695313 31.84375 25.554688 51.527344 59.011719 58.628906 99.761719 6.503907 37.3125-.496093 67.152344-.5625 67.433594-1.074218 4.414063.957032 8.996094 4.945313 11.164063 3.996094 2.164062 8.945313 1.367187 12.054687-1.941407 1.6875-1.792969 34.328126-37.203125 37.378907-90.964843 29.191406 46.382812 40.550781 85.550781 40.550781 134.9375 0 13.078124-1.757812 26.039062-5.21875 38.511718-1.480469 5.324219 1.640625 10.835938 6.960938 12.3125 5.316406 1.476563 10.832031-1.640625 12.308593-6.960937 3.949219-14.21875 5.949219-28.976563 5.949219-43.863281 0-64.5625-17.695312-112.585938-65.292969-177.195313zm-306.808593 320.859375 29.425781-29.425781c3.90625-3.90625 3.90625-10.238281 0-14.144531-3.90625-3.902344-10.238281-3.902344-14.144531 0l-27.695313 27.699218v-32.050781s0-.003906 0-.007813v-36.503906l25.539063-25.542968c3.90625-3.902344 3.90625-10.234376 0-14.140626s-10.234376-3.90625-14.140626 0l-11.398437 11.398438v-61.617188c0-5.519531-4.480469-10-10-10-5.523437 0-10 4.480469-10 10v85.753907.011719 16.503906l-12.875-12.875c-3.90625-3.90625-10.234375-3.90625-14.144531 0-3.902344 3.90625-3.902344 10.238281 0 14.140625l27.019531 27.019531v43.78125h-81.9375l28.347656-62.191406c1.410157-3.09375 1.152344-6.695313-.6875-9.554688-1.839843-2.863281-5.007812-4.59375-8.410156-4.59375h-4.726563l30.554688-67.03125c1.410156-3.097656 1.148438-6.695312-.691406-9.558594-1.839844-2.859374-5.007813-4.589843-8.410156-4.589843h-5.566407l61.527344-134.992188 61.527344 134.992188h-5.566407c-3.402343 0-6.570312 1.730469-8.410156 4.589843-1.839844 2.863282-2.101562 6.460938-.6875 9.558594l30.554688 67.03125h-4.726563c-3.402343 0-6.570312 1.730469-8.410156 4.59375-1.84375 2.859375-2.101563 6.460938-.691406 9.554688l28.347656 62.191406zm152.917968-55.519531c0-8.261719 1.777344-16.21875 5.285156-23.652344.019532-.039063.035157-.078125.054688-.117187.980469-2.0625 2.125-4.121094 3.410156-6.125.207032-.324219.394532-.660157.566406-1.007813 8.207032-16.8125 9.265626-32.882813 8.132813-45.082031 3.859375 3.644531 7.699219 8.910156 10.5 16.492187 1.855469 5.03125 7.355469 7.703125 12.457031 6.050781 5.105469-1.648437 7.996094-7.03125 6.554688-12.199218-2.027344-7.277344 5.4375-27.382813 20.871094-40.597656 1.726562 22.394531 14.007812 42.625 25.972656 62.335937 2.390625 3.9375 4.863281 8.007813 7.164062 11.96875.121094.214844.253906.421875.394532.628906 2.074218 3.027344 3.847656 6.257813 5.265624 9.59375.007813.015625.015626.03125.019532.050781 2.910156 6.859376 4.386718 14.148438 4.386718 21.664063 0 30.613281-24.902343 55.519531-55.519531 55.519531-30.613281-.003906-55.515625-24.910156-55.515625-55.523437zm-22.820312 55.519531h-38.59375l-25.683594-56.339844h4.253906c14.875 23.488282 35.5625 42.949219 60.023438 56.339844zm-32.121094-312.835938c-2.90625-2.730468-7.160156-3.46875-10.816406-1.886718-3.660156 1.582031-6.027344 5.191406-6.027344 9.175781 0 52.257813-10.316406 74.832031-20.292969 96.667969-3.992187 8.730468-7.871093 17.230468-10.820312 27.066406l-49.402344-108.390625 62.382813-163.710937 62.5625 164.183593h-6.601563c-.191406 0-.378906.015625-.570313.027344-5.675781-7.847656-12.417968-15.621094-20.414062-23.132813zm0 0"/><path d="m485.210938 418.960938c-4.730469-2.851563-10.875-1.324219-13.726563 3.402343l-.515625.847657c-2.871094 4.722656-1.371094 10.871093 3.351562 13.742187 1.621094.984375 3.414063 1.453125 5.183594 1.453125 3.378906 0 6.671875-1.707031 8.554688-4.804688l.554687-.914062c2.851563-4.730469 1.328125-10.875-3.402343-13.726562zm0 0"/></svg>