<svg width="512" height="512" xmlns="http://www.w3.org/2000/svg">

 <g>
  <title>Layer 1</title>
  <path fill="#ffff00" id="svg_1" d="m118.48047,266.67188c-2.63281,0 -5.21094,1.05859 -7.07031,2.92968c-1.85938,1.85938 -2.92969,4.4375 -2.92969,7.07032c0,2.6289 1.07031,5.20703 2.92969,7.0664c1.87109,1.85938 4.4375,2.9336 7.07031,2.9336c2.62891,0 5.21094,-1.07032 7.07812,-2.9336c1.85938,-1.86719 2.9336,-4.4375 2.9336,-7.0664c0,-2.63282 -1.07031,-5.21094 -2.9336,-7.07032c-1.86718,-1.87109 -4.44921,-2.92968 -7.07812,-2.92968zm0,0"/>
  <path fill="#ffff00" id="svg_2" d="m446.70703,170.14063c-2.79687,-3.79688 -7.85937,-5.1211 -12.15625,-3.1875s-6.66015,6.60546 -5.67187,11.21093c5.61328,26.23047 2.76172,52.44141 -8.47657,77.94141c-0.14843,-9.64453 -0.96093,-20.46875 -2.92187,-32.00391c-6.50391,-38.26562 -27.35938,-91.76172 -89.80078,-129.32422c-3.70703,-2.23047 -8.42969,-1.82422 -11.69922,1.00391c-3.26953,2.83203 -4.35156,7.44531 -2.67578,11.4375c20.05469,47.73047 -7.41406,119.75 -27.44531,161.62109c-2.16016,-14.05468 -6.6211,-30.58593 -15.32813,-47.57031l9.4375,0c3.28906,0 6.37109,-1.61719 8.23438,-4.32422c1.86718,-2.71094 2.28125,-6.16406 1.11328,-9.23437l-77.07422,-202.26953c-1.47657,-3.87891 -5.19532,-6.44141 -9.34375,-6.44141c-4.14844,0 -7.86719,2.5625 -9.34766,6.4375l-64.69141,169.78125l-2.27343,-4.98828c-1.625,-3.5625 -5.1836,-5.85156 -9.10157,-5.85156s-7.47656,2.28515 -9.10156,5.85156l-77.07422,169.10547c-1.41015,3.09375 -1.15234,6.69531 0.6875,9.55468c1.83985,2.86329 5.00782,4.58985 8.41016,4.58985l5.56641,0l-30.55079,67.03516c-1.41015,3.09375 -1.15234,6.69531 0.6875,9.55468c1.83985,2.86328 5.00782,4.58985 8.41016,4.58985l4.72656,0l-28.34375,62.1914c-1.41406,3.09766 -1.15234,6.69532 0.6875,9.5586c1.83985,2.85937 5.00782,4.58984 8.41016,4.58984l338.33203,0c40.74609,0 79.79297,-15.06641 109.94531,-42.42578c4.08985,-3.71094 4.39453,-10.03516 0.6836,-14.125c-3.71094,-4.08985 -10.03516,-4.39453 -14.125,-0.6875c-9.98828,9.0625 -21.08594,16.58594 -32.95703,22.44141c7.5625,-11.75782 11.97265,-25.73047 11.97265,-40.72266c0,-10.22656 -2.01562,-20.16016 -5.99219,-29.51563c-0.02734,-0.0664 -0.05859,-0.13672 -0.08593,-0.19922c-1.8711,-4.37109 -4.1836,-8.59765 -6.875,-12.57421c-2.34375,-4.02735 -4.80078,-8.07422 -7.17969,-11.99219c-14.07813,-23.19141 -27.375,-45.09766 -22.03125,-68.10938c0.83594,-3.61718 -0.39453,-7.39843 -3.20313,-9.82812c-2.80859,-2.42578 -6.72656,-3.09766 -10.18359,-1.7461c-15.25781,5.96875 -28.89062,17.94922 -38.39062,33.73047c-2.06641,3.4375 -3.84766,6.89453 -5.31641,10.3086c-12.69141,-12.25391 -26.67578,-13.94532 -27.51563,-14.03907c-3.53515,-0.375 -7.02734,1.125 -9.13671,3.98829c-2.11329,2.86718 -2.55079,6.61718 -1.13672,9.88281c0.41406,0.98047 9.90625,24.17187 -2.41407,49.92969c-1.5664,2.49218 -2.98437,5.05859 -4.21875,7.63671c-0.12109,0.23438 -0.23437,0.47266 -0.33593,0.71485c-4.66016,10.01562 -7.02344,20.71484 -7.02344,31.8125c0,14.96094 4.39062,28.90625 11.92578,40.65234c-47.40234,-23.5 -80.07422,-72.40234 -80.07422,-128.79687c0,-25.69532 6.60938,-40.15625 14.26172,-56.90235c8.69531,-19.03125 18.36719,-40.19531 21.24609,-79.98047c12.69141,16.71485 21.10157,35.82422 25.07813,57.04688c4.125,22.02344 1.67578,38.21875 1.65625,38.35156c-0.76953,4.72266 1.92187,9.32813 6.41016,10.98438c4.48828,1.65234 9.52343,-0.10547 12.00781,-4.19532c2.92578,-4.82031 64.18359,-107.0039 53.67969,-185.69531c31.84375,25.55469 51.52734,59.01172 58.6289,99.76172c6.50391,37.3125 -0.49609,67.15234 -0.5625,67.43359c-1.07422,4.41407 0.95703,8.9961 4.94531,11.16407c3.9961,2.16406 8.94532,1.36718 12.05469,-1.94141c1.6875,-1.79297 34.32813,-37.20312 37.37891,-90.96484c29.1914,46.38281 40.55078,85.55078 40.55078,134.9375c0,13.07812 -1.75781,26.03906 -5.21875,38.51172c-1.48047,5.32421 1.64062,10.83593 6.96094,12.3125c5.3164,1.47656 10.83203,-1.64063 12.30859,-6.96094c3.94922,-14.21875 5.94922,-28.97656 5.94922,-43.86328c0,-64.5625 -17.69531,-112.58594 -65.29297,-177.19532l0,0.00001zm-306.80859,320.85937l29.42578,-29.42578c3.90625,-3.90625 3.90625,-10.23828 0,-14.14453c-3.90625,-3.90235 -10.23828,-3.90235 -14.14453,0l-27.69531,27.69922l0,-32.05079s0,-0.0039 0,-0.00781l0,-36.5039l25.53906,-25.54297c3.90625,-3.90235 3.90625,-10.23438 0,-14.14063s-10.23438,-3.90625 -14.14063,0l-11.39843,11.39844l0,-61.61719c0,-5.51953 -4.48047,-10 -10,-10c-5.52344,0 -10,4.48047 -10,10l0,85.75391l0,0.01172l0,16.5039l-12.875,-12.875c-3.90625,-3.90625 -10.23438,-3.90625 -14.14454,0c-3.90234,3.90625 -3.90234,10.23829 0,14.14063l27.01954,27.01953l0,43.78125l-81.9375,0l28.34765,-62.19141c1.41016,-3.09375 1.15235,-6.69531 -0.6875,-9.55468c-1.83984,-2.86328 -5.00781,-4.59375 -8.41015,-4.59375l-4.72657,0l30.55469,-67.03125c1.41016,-3.09766 1.14844,-6.69532 -0.69141,-9.5586c-1.83984,-2.85937 -5.00781,-4.58984 -8.41015,-4.58984l-5.56641,0l61.52735,-134.99219l61.52734,134.99219l-5.56641,0c-3.40234,0 -6.57031,1.73047 -8.41015,4.58984c-1.83985,2.86328 -2.10157,6.46094 -0.6875,9.5586l30.55468,67.03125l-4.72656,0c-3.40234,0 -6.57031,1.73046 -8.41015,4.59375c-1.84375,2.85937 -2.10157,6.46093 -0.69141,9.55468l28.34766,62.19141l-69.52344,0zm152.91797,-55.51953c0,-8.26172 1.77734,-16.21875 5.28515,-23.65234c0.01953,-0.03907 0.03516,-0.07813 0.05469,-0.11719c0.98047,-2.0625 2.125,-4.1211 3.41016,-6.125c0.20703,-0.32422 0.39453,-0.66016 0.5664,-1.00781c8.20703,-16.8125 9.26563,-32.88282 8.13281,-45.08204c3.85938,3.64453 7.69922,8.91016 10.5,16.49219c1.85547,5.03125 7.35547,7.70313 12.45704,6.05078c5.10546,-1.64844 7.99609,-7.03125 6.55468,-12.19922c-2.02734,-7.27734 5.4375,-27.38281 20.8711,-40.59765c1.72656,22.39453 14.00781,42.625 25.97265,62.33593c2.39063,3.9375 4.86328,8.00782 7.16407,11.96875c0.12109,0.21485 0.2539,0.42188 0.39453,0.62891c2.07422,3.02734 3.84765,6.25781 5.26562,9.59375c0.00782,0.01563 0.01563,0.03125 0.01953,0.05078c2.91016,6.85938 4.38672,14.14844 4.38672,21.66406c0,30.61329 -24.90234,55.51954 -55.51953,55.51954c-30.61328,-0.00391 -55.51562,-24.91016 -55.51562,-55.52344zm-22.82032,55.51953l-38.59375,0l-25.68359,-56.33984l4.25391,0c14.875,23.48828 35.5625,42.94922 60.02343,56.33984zm-32.12109,-312.83594c-2.90625,-2.73047 -7.16016,-3.46875 -10.81641,-1.88672c-3.66015,1.58204 -6.02734,5.19141 -6.02734,9.17579c0,52.25781 -10.31641,74.83203 -20.29297,96.66796c-3.99219,8.73047 -7.87109,17.23047 -10.82031,27.06641l-49.40234,-108.39062l62.38281,-163.71094l62.5625,164.18359l-6.60156,0c-0.19141,0 -0.37891,0.01563 -0.57032,0.02735c-5.67578,-7.84766 -12.41797,-15.6211 -20.41406,-23.13282zm0,0"/>
  <path fill="#ffff00" id="svg_3" d="m486.21094,417.96094c-4.73047,-2.85156 -10.875,-1.32422 -13.72656,3.40234l-0.51563,0.84766c-2.87109,4.72265 -1.37109,10.87109 3.35156,13.74219c1.6211,0.98437 3.41407,1.45312 5.1836,1.45312c3.3789,0 6.67187,-1.70703 8.55468,-4.80469l0.55469,-0.91406c2.85156,-4.73047 1.32813,-10.875 -3.40234,-13.72656zm0,0"/>
 </g>
</svg>