<?xml version="1.0" encoding="utf-8"?>
<!-- Generator: Adobe Illustrator 25.2.3, SVG Export Plug-In . SVG Version: 6.00 Build 0)  -->
<svg version="1.1" id="Capa_1" xmlns="http://www.w3.org/2000/svg" xmlns:xlink="http://www.w3.org/1999/xlink" x="0px" y="0px"
	 viewBox="0 0 83.9 83.9" style="enable-background:new 0 0 83.9 83.9;" xml:space="preserve">
<style type="text/css">
	.st0{fill:#FFFFFF;}
	.st1{fill:#DFDFDF;}
	.st2{fill:#011761;}
	.st3{fill:#E1231F;}
</style>
<circle class="st0" cx="41.95" cy="41.95" r="39"/>
<path class="st1" d="M42,82.43C19.64,82.44,1.51,64.32,1.5,41.97S19.61,1.48,41.97,1.47c22.36-0.01,40.49,18.11,40.5,40.46
	c0,10.75-4.27,21.06-11.87,28.66C63.01,78.17,52.72,82.43,42,82.43z M42,4.43C21.3,4.42,4.51,21.2,4.51,41.9
	s16.77,37.49,37.47,37.49c20.7,0.01,37.49-16.77,37.49-37.47c0-9.93-3.94-19.46-10.96-26.49C61.48,8.4,51.94,4.45,42,4.47V4.43z"/>
<g>
	<g>
		<path class="st2" d="M14.95,49.44c-0.39,0-0.78-0.15-1.08-0.46c-0.58-0.6-0.56-1.54,0.03-2.12l13.08-12.67
			c0.59-0.57,1.52-0.56,2.1,0.01l11.15,11.05L63.12,23c0.59-0.58,1.54-0.56,2.12,0.03c0.58,0.59,0.56,1.54-0.03,2.12L41.27,48.43
			c-0.59,0.57-1.52,0.56-2.1-0.01L28.02,37.37L15.99,49.02C15.7,49.3,15.33,49.44,14.95,49.44z"/>
	</g>
	<g>
		<path class="st3" d="M15.71,63.04c-0.39,0-0.78-0.15-1.08-0.46c-0.58-0.6-0.56-1.54,0.03-2.12l13.08-12.67
			c0.59-0.57,1.52-0.56,2.1,0.01l12.19,12.08c0.59,0.58,0.59,1.53,0.01,2.12c-0.58,0.59-1.53,0.59-2.12,0.01L28.78,50.96
			L16.76,62.62C16.47,62.9,16.09,63.04,15.71,63.04z"/>
	</g>
	<g>
		<path class="st2" d="M65.9,30.37c-0.83,0-1.5-0.67-1.5-1.5v-5.01h-5.4c-0.83,0-1.5-0.67-1.5-1.5s0.67-1.5,1.5-1.5h6.9
			c0.83,0,1.5,0.67,1.5,1.5v6.51C67.4,29.7,66.73,30.37,65.9,30.37z"/>
	</g>
	<g>
		<path class="st3" d="M44.2,59.23c-0.38,0-0.77-0.15-1.06-0.44c-0.59-0.59-0.59-1.54,0-2.12l2.12-2.12c0.59-0.59,1.54-0.59,2.12,0
			c0.59,0.59,0.59,1.54,0,2.12l-2.12,2.12C44.97,59.09,44.58,59.23,44.2,59.23z M49.86,53.58c-0.38,0-0.77-0.15-1.06-0.44
			c-0.59-0.59-0.59-1.54,0-2.12l2.12-2.12c0.59-0.59,1.54-0.59,2.12,0c0.59,0.59,0.59,1.54,0,2.12l-2.12,2.12
			C50.63,53.43,50.24,53.58,49.86,53.58z M55.51,47.92c-0.38,0-0.77-0.15-1.06-0.44c-0.59-0.59-0.59-1.54,0-2.12l2.12-2.12
			c0.59-0.59,1.54-0.59,2.12,0c0.59,0.59,0.59,1.54,0,2.12l-2.12,2.12C56.28,47.77,55.9,47.92,55.51,47.92z M61.17,42.26
			c-0.38,0-0.77-0.15-1.06-0.44c-0.59-0.59-0.59-1.54,0-2.12l2.12-2.12c0.59-0.59,1.54-0.59,2.12,0c0.59,0.59,0.59,1.54,0,2.12
			l-2.12,2.12C61.94,42.12,61.55,42.26,61.17,42.26z M66.83,36.61c-0.38,0-0.77-0.15-1.06-0.44c-0.59-0.59-0.59-1.54,0-2.12
			l2.12-2.12c0.59-0.58,1.54-0.59,2.12,0s0.59,1.54,0,2.12l-2.12,2.12C67.59,36.46,67.21,36.61,66.83,36.61z"/>
	</g>
</g>
</svg>
